<?xml version="1.0" standalone="no"?>
<!DOCTYPE svg PUBLIC "-//W3C//DTD SVG 20010904//EN"
 "http://www.w3.org/TR/2001/REC-SVG-20010904/DTD/svg10.dtd">
<svg version="1.0" xmlns="http://www.w3.org/2000/svg"
 width="512.000000pt" height="512.000000pt" viewBox="0 0 512.000000 512.000000"
 preserveAspectRatio="xMidYMid meet">

<g transform="translate(0.000000,512.000000) scale(0.100000,-0.100000)"
fill="#fff" stroke="none">
<path d="M320 4947 c-49 -16 -133 -102 -148 -153 -18 -60 -18 -4408 0 -4468
16 -55 99 -138 154 -154 60 -18 4408 -18 4468 0 55 16 138 99 154 154 18 60
18 4408 0 4468 -16 55 -99 138 -154 154 -57 17 -4421 16 -4474 -1z m4455 -172
c25 -24 25 -24 25 -240 l0 -215 -2240 0 -2240 0 0 215 c0 216 0 216 25 240
l24 25 2191 0 2191 0 24 -25z m25 -2510 l0 -1896 -25 -24 -24 -25 -2191 0
-2191 0 -24 25 -25 24 0 1896 0 1895 2240 0 2240 0 0 -1895z"/>
<path d="M505 4615 c-16 -15 -25 -36 -25 -55 0 -19 9 -40 25 -55 21 -22 33
-25 95 -25 62 0 74 3 95 25 33 32 33 78 0 110 -21 22 -33 25 -95 25 -62 0 -74
-3 -95 -25z"/>
<path d="M825 4615 c-16 -15 -25 -36 -25 -55 0 -19 9 -40 25 -55 21 -22 33
-25 95 -25 62 0 74 3 95 25 33 32 33 78 0 110 -21 22 -33 25 -95 25 -62 0 -74
-3 -95 -25z"/>
<path d="M1145 4615 c-16 -15 -25 -36 -25 -55 0 -19 9 -40 25 -55 21 -22 33
-25 95 -25 62 0 74 3 95 25 16 15 25 36 25 55 0 19 -9 40 -25 55 -21 22 -33
25 -95 25 -62 0 -74 -3 -95 -25z"/>
<path d="M1705 4615 c-16 -15 -25 -36 -25 -55 0 -19 9 -40 25 -55 l24 -25
1431 0 1431 0 24 25 c33 32 33 78 0 110 l-24 25 -1431 0 -1431 0 -24 -25z"/>
<path d="M991 2943 c-15 -13 -67 -155 -186 -513 -91 -272 -165 -505 -165 -518
0 -13 11 -34 25 -47 l24 -25 336 0 335 0 0 -135 c0 -131 1 -137 25 -160 32
-33 78 -33 110 0 24 23 25 29 25 160 l0 135 95 0 c88 0 98 2 120 25 33 32 33
78 0 110 -22 23 -32 25 -120 25 l-95 0 0 455 0 456 -25 24 c-15 16 -36 25 -55
25 -19 0 -40 -9 -55 -25 l-25 -24 0 -456 0 -455 -264 0 -264 0 144 432 c79
238 144 443 144 456 0 57 -83 92 -129 55z"/>
<path d="M2420 2946 c-216 -46 -404 -189 -499 -378 -61 -123 -76 -190 -75
-338 1 -107 5 -137 27 -205 38 -115 90 -198 182 -290 131 -131 277 -199 454
-212 434 -30 796 330 767 765 -6 107 -43 228 -97 320 -49 82 -180 211 -262
257 -148 82 -343 113 -497 81z m246 -157 c96 -17 213 -79 286 -152 112 -112
163 -235 163 -397 0 -160 -51 -285 -161 -394 -109 -110 -234 -161 -394 -161
-162 0 -285 51 -397 163 -236 236 -209 632 58 834 131 100 284 136 445 107z"/>
<path d="M2265 2535 c-22 -21 -25 -33 -25 -95 0 -62 3 -74 25 -95 15 -16 36
-25 55 -25 19 0 40 9 55 25 22 21 25 33 25 95 0 62 -3 74 -25 95 -15 16 -36
25 -55 25 -19 0 -40 -9 -55 -25z"/>
<path d="M2745 2535 c-22 -21 -25 -33 -25 -95 0 -62 3 -74 25 -95 15 -16 36
-25 55 -25 19 0 40 9 55 25 22 21 25 33 25 95 0 62 -3 74 -25 95 -15 16 -36
25 -55 25 -19 0 -40 -9 -55 -25z"/>
<path d="M2458 2186 c-67 -19 -127 -57 -176 -110 -50 -54 -55 -94 -17 -131 38
-38 78 -33 126 16 102 104 233 105 337 0 49 -49 89 -55 127 -16 40 39 33 77
-22 136 -91 97 -249 141 -375 105z"/>
<path d="M3711 2943 c-15 -13 -67 -155 -186 -513 -91 -272 -165 -505 -165
-518 0 -13 11 -34 25 -47 l24 -25 336 0 335 0 0 -135 c0 -131 1 -137 25 -160
32 -33 78 -33 110 0 24 23 25 29 25 160 l0 135 95 0 c88 0 98 2 120 25 33 32
33 78 0 110 -22 23 -32 25 -120 25 l-95 0 0 455 0 456 -25 24 c-15 16 -36 25
-55 25 -19 0 -40 -9 -55 -25 l-25 -24 0 -456 0 -455 -264 0 -264 0 144 432
c79 238 144 443 144 456 0 57 -83 92 -129 55z"/>
</g>
</svg>
