<?xml version="1.0" standalone="no"?>
<!DOCTYPE svg PUBLIC "-//W3C//DTD SVG 20010904//EN"
 "http://www.w3.org/TR/2001/REC-SVG-20010904/DTD/svg10.dtd">
<svg version="1.0" xmlns="http://www.w3.org/2000/svg"
 width="1280.000000pt" height="920.000000pt" viewBox="0 0 1280.000000 920.000000"
 preserveAspectRatio="xMidYMid meet">
<metadata>
Created by potrace 1.15, written by Peter Selinger 2001-2017
</metadata>
<g transform="translate(0.000000,920.000000) scale(0.100000,-0.100000)"
fill="#000000" stroke="none">
<path d="M4465 9194 c-249 -8 -619 -26 -715 -34 -58 -6 -212 -14 -343 -20
-405 -18 -543 -61 -612 -192 l-27 -53 -207 12 c-328 18 -351 8 -351 -160 0
-95 9 -111 74 -124 l37 -8 -89 -52 c-84 -49 -95 -53 -165 -55 -41 -2 -70 -6
-64 -10 6 -4 8 -36 3 -93 -5 -66 -11 -91 -26 -107 -20 -21 -24 -33 -20 -53 1
-5 -5 -4 -12 3 -8 8 -16 49 -19 100 l-7 87 2 -93 c1 -113 5 -117 110 -127 40
-4 79 -11 86 -15 10 -6 5 -172 -24 -816 -20 -445 -42 -862 -48 -928 l-11 -118
-201 7 c-521 18 -871 -51 -1038 -204 -110 -101 -137 -174 -147 -404 l-8 -169
-100 -101 c-276 -282 -490 -542 -528 -641 -21 -56 -16 -70 32 -94 60 -31 114
-36 175 -17 l53 16 101 -54 c88 -47 154 -90 282 -184 l33 -24 -34 -47 c-219
-301 -370 -624 -457 -978 -89 -360 -104 -800 -40 -1167 170 -971 832 -1764
1764 -2112 135 -50 373 -109 547 -136 207 -32 570 -33 779 -1 881 135 1620
655 2033 1432 113 212 213 487 257 702 6 31 17 61 24 67 9 8 214 9 698 4 l685
-6 11 -31 c18 -50 134 -247 198 -338 76 -107 315 -346 422 -422 325 -230 696
-359 1078 -373 l151 -6 18 -30 c38 -64 177 -227 272 -317 504 -484 1211 -700
1898 -579 363 63 744 242 1035 487 421 352 702 894 760 1461 61 611 -166 1261
-601 1715 -359 376 -883 625 -1394 663 -92 7 -100 10 -98 28 13 134 24 393 20
447 -6 67 -5 68 19 68 34 0 32 32 -6 72 -18 18 -30 42 -30 58 0 61 -41 244
-75 330 -87 226 -204 337 -411 390 -238 61 -1570 157 -2549 183 l-80 2 2 115
c2 63 8 484 15 935 l12 820 -22 64 c-20 58 -22 86 -22 258 l0 193 -45 29 c-40
25 -50 28 -90 20 -86 -16 -81 -4 -88 -227 -6 -183 -9 -203 -31 -253 l-25 -54
-10 -490 c-6 -270 -13 -672 -16 -895 -3 -223 -8 -429 -11 -457 l-5 -53 -130 0
-129 0 0 43 c0 23 -25 523 -55 1111 -30 589 -52 1073 -48 1076 5 4 58 46 120
93 61 48 114 95 117 105 3 9 17 60 31 112 15 52 31 100 37 107 10 13 -11 49
-109 180 -81 108 -247 227 -380 272 -54 18 -109 23 -455 36 -359 14 -1544 27
-1783 19z m-2129 -326 c-3 -18 -8 -56 -11 -84 -4 -42 -12 -59 -46 -94 -51 -54
-59 -45 -59 68 0 79 2 85 29 113 20 20 40 29 61 29 29 0 31 -2 26 -32z m319
-534 c-9 -93 -20 -214 -25 -269 -5 -55 -41 -433 -80 -840 -39 -407 -74 -771
-77 -809 l-6 -69 -105 7 c-58 3 -148 6 -200 6 l-95 0 6 73 c4 39 11 118 17
175 5 56 14 146 20 200 5 53 16 162 24 242 9 80 38 368 66 640 43 419 53 497
68 507 9 7 103 79 207 161 105 82 191 147 193 146 2 -1 -4 -78 -13 -170z m342
-516 c-2 -24 -4 -5 -4 42 0 47 2 66 4 43 2 -24 2 -62 0 -85z m3 -240 l5 42 25
-22 c14 -13 41 -35 62 -50 20 -15 42 -34 50 -41 7 -7 29 -24 48 -37 19 -13 41
-30 48 -37 8 -7 30 -26 50 -41 21 -15 39 -29 42 -32 3 -3 25 -21 50 -40 25
-19 47 -37 50 -40 3 -3 26 -22 53 -43 26 -21 47 -46 47 -54 0 -9 3 -14 6 -11
3 4 -6 61 -21 128 -15 67 -25 124 -22 126 4 4 78 -321 77 -343 0 -20 -72 -132
-169 -266 -159 -219 -249 -365 -257 -414 -6 -41 -8 -44 -33 -39 -14 3 -62 8
-105 11 l-79 7 7 176 c7 205 22 532 36 814 6 109 11 240 12 290 l2 93 6 -110
c3 -73 7 -96 10 -67z m1618 -300 c2 125 -2 123 65 40 21 -26 43 -53 50 -60 7
-7 32 -38 57 -68 25 -30 50 -61 57 -68 7 -7 29 -34 50 -60 21 -26 45 -54 53
-62 9 -8 35 -40 60 -70 25 -30 47 -57 50 -60 3 -3 25 -30 50 -60 25 -30 52
-62 60 -70 8 -8 35 -40 60 -70 25 -30 47 -57 50 -60 3 -3 25 -30 50 -60 25
-30 51 -62 60 -70 8 -8 35 -40 60 -70 24 -30 48 -56 52 -58 18 -8 6 -23 -14
-18 -21 6 -21 5 -3 -3 11 -5 28 -12 38 -15 9 -3 20 -13 23 -21 4 -9 21 -30 38
-48 17 -18 49 -55 71 -82 22 -28 47 -57 55 -65 9 -8 36 -40 60 -70 25 -30 51
-61 57 -68 16 -16 22 -42 26 -107 1 -27 2 83 0 245 l-1 295 9 -295 c15 -499
24 -940 19 -940 -3 0 -59 93 -125 208 l-119 207 -100 84 -99 85 6 109 c6 106
8 113 63 233 56 122 57 125 44 164 -16 49 -23 55 -79 70 l-44 12 -48 -49 c-37
-38 -77 -107 -193 -333 l-146 -285 0 116 0 116 -67 64 c-38 36 -134 107 -214
159 l-146 93 -7 366 c-3 201 -8 528 -10 726 l-4 360 12 -250 c10 -196 13 -226
14 -137z m25 365 c-7 -2 -19 -2 -25 0 -7 3 -2 5 12 5 14 0 19 -2 13 -5z m-546
-675 c-2 -13 -4 -5 -4 17 -1 22 1 32 4 23 2 -10 2 -28 0 -40z m38 -258 c17
-33 28 -41 18 -12 -6 15 -5 16 13 2 10 -8 21 -17 24 -20 3 -3 25 -21 50 -40
25 -19 47 -37 50 -40 3 -3 25 -21 50 -40 68 -53 78 -63 83 -90 2 -14 6 54 8
150 l3 175 5 -235 c4 -129 6 -236 6 -237 0 0 -38 22 -85 50 l-86 51 -83 155
-83 156 -4 95 -3 95 9 -92 c5 -51 16 -106 25 -123z m2042 -772 c-2 -24 -4 -7
-4 37 0 44 2 63 4 43 2 -21 2 -57 0 -80z m23 -463 c3 -85 4 -87 9 -31 l6 58
28 -31 c15 -18 25 -36 22 -41 -3 -6 -4 -10 -2 -10 2 0 21 27 42 59 22 33 41
58 43 57 2 -2 -32 -59 -75 -126 l-78 -122 -6 158 c-4 88 -6 215 -6 284 l1 125
6 -145 c4 -80 9 -185 10 -235z m225 29 c30 -20 55 -39 55 -42 0 -2 -12 4 -27
13 -14 10 -41 26 -60 37 -31 19 -40 28 -28 28 3 0 30 -16 60 -36z m151 -99
l27 -21 -45 -80 c-64 -111 -81 -147 -70 -140 6 3 20 -6 31 -20 17 -22 19 -30
9 -42 -11 -13 77 39 180 106 12 8 22 12 22 9 0 -7 -246 -167 -258 -167 -6 0
-22 5 -36 11 l-24 11 20 34 c11 19 25 31 31 27 6 -3 7 -1 3 6 -4 6 21 61 58
126 36 63 66 116 66 119 0 2 -22 18 -50 36 -27 18 -50 34 -50 37 0 6 55 -27
86 -52z m251 13 c-3 -8 -6 -5 -6 6 -1 11 2 17 5 13 3 -3 4 -12 1 -19z"/>
<path d="M5560 6255 c0 -5 5 -17 10 -25 5 -8 10 -10 10 -5 0 6 -5 17 -10 25
-5 8 -10 11 -10 5z"/>
<path d="M1944 8475 c-9 -14 -14 -28 -10 -32 3 -3 6 -1 6 5 0 7 9 21 20 32 11
11 16 20 10 20 -5 0 -17 -11 -26 -25z"/>
</g>
</svg>
